# xmcd
#
# Track frame offsets: 
#        150
#        25442
#        41722
#        61504
#        71873
#        106722
#        122694
#        144937
#        173053
#        196274
#        229389
#
# Disc length: 3255 seconds
#
# Revision: 0
# Processed by: cddbd v1.5.2PL0 Copyright (c) Steve Scherf et al.
# Submitted via: ExactAudioCopy v0.99pb4
#
DISCID=930cb50b
DTITLE=Roy Montgomery - Inroads - Paved [CD1]
DYEAR=2007
DGENRE=Rock
TTITLE0=Dawn Fades Over Ocean
TTITLE1=Liverpool 1982
TTITLE2=Sterling Morrison Corner 10th And First 1966
TTITLE3=For Kerry
TTITLE4=A Précis Of The 60s
TTITLE5=On The Road 2
TTITLE6=A Flock Of Fish
TTITLE7=Goodbye Mrs D'Eath
TTITLE8=Cumulus And Fugue
TTITLE9=London Is Swinging By His Neck (Instrumental Version)
TTITLE10=Temple IV (Slight Return)
EXTD=
EXTT0=
EXTT1=
EXTT2=
EXTT3=
EXTT4=
EXTT5=
EXTT6=
EXTT7=
EXTT8=
EXTT9=
EXTT10=
PLAYORDER=
